<?xml version="1.0" encoding="UTF-8"?>
<svg data-bbox="0 0 92 92" xmlns="http://www.w3.org/2000/svg" viewBox="0 0 92 92" height="92" width="92" data-type="color">
    <g>
        <path fill="#FF8C00" d="M92 46c0 25.405-20.595 46-46 46S0 71.405 0 46 20.595 0 46 0s46 20.595 46 46" data-color="1"/>
        <path fill="#000000" d="M54.278 44.882c.391-1.256-.152-2.542-1.213-2.873-1.062-.33-2.24.42-2.631 1.675s.152 2.542 1.213 2.873c1.062.33 2.24-.42 2.63-1.675" data-color="2"/>
        <path fill="#000000" d="M32.85 19.13s1.367-.818 3.214-1.298c1.853-.475 4.363-.657 4.363-.657s-2.996 4.897-2.12 12.48c.395 3.422 3.118 4.202 5.356 3.993 1.98-.187 3.727-1.356 3.727-1.356s.09 1.671-.064 3.439c-.16 1.842-.534 3.284-.534 3.284s-3.962.192-8.229-1.063c-3.898-1.148-5.826-2.9-5.826-2.9.209-.314 1.976-3.427 1.72-7.95-.16-2.804-1.608-7.973-1.608-7.973" data-color="2"/>
        <path fill="#000000" d="M49.04 31.326c.187 1.1.133 2.248.085 3.588-.053 1.41-.437 3.887-.437 3.887s5.265-.25 8.11-3.091c2.382-2.376 2.799-5.511 1.73-7.84-1.067-2.327-3.433-3.032-4.442-3.716-1.116-.753-1.308-1.43-.844-2.13.422-.636 1.57-.636 2.633.016 1.121.683 1.82 1.997 1.82 1.997S58 22.648 58 21.324c0-.518-.027-.988-.064-1.372a2.33 2.33 0 0 0-1.11-1.773 6.1 6.1 0 0 0-2.687-.849c-2.712-.213-4.336 1.591-4.581 3.065-.251 1.474-.283 3.551 1.9 5.49 1.971 1.75 2.67 3.62 1.39 5.072-1.277 1.442-3.797.369-3.797.369z" data-color="2"/>
        <path fill="#000000" d="M49.515 48.376s-.284 5.035.1 9.227c.428 4.704 2.67 10.386 2.67 10.386s1.453-.668 2.67-.839c1.218-.17 2.847.091 2.847.091s-3.551-3.983-4.352-9.761c-.566-4.112.192-9.158.192-9.158s-1.105.406-2.2.406-1.922-.347-1.922-.347z" data-color="2"/>
        <path fill="#000000" d="M62.875 60.31c-.603-1.521-.961-4.186-.961-4.186s-.411 2.836-1.597 1.292c-.7-.913-.972-3.807-.849-6.786 1.218-.097 2.13.026 2.13.026s-.117-1.078.209-2.702c.31-1.527 1.01-3.123 1.01-3.123s-1.459 1.126-2.954 1.97l.048-.273c.732-3.913 2.585-8.42 2.585-8.42s-1.89 1.522-3.471 2.365c-1.543.822-3.417 1.159-3.417 1.159s.78 3.017 1.116 6.226c-.898.118-1.581.096-1.581.096s-.352 1.32-.46 2.708c-.111 1.436-.095 2.579-.095 2.579s1.1-1.084 2.333-1.827c.053 2.89-.085 5.874-.037 7.94.064 2.687.315 4.823 1.094 5.837.78 1.015 2.136 1.282 3.818.502 1.538-.72 2.734-2.504 2.734-2.504s-.88-.94-1.644-2.868z" data-color="2"/>
        <path fill="#000000" d="M30.105 46.828c-1.084-1.645-3.797-2.718-5.063-1.896s-2.05 3.327-2.408 6.76c-.358 3.434-.299 5.906-.058 7.55.24 1.645.982 2.874 2.541 3.883 1.447.934 3.359 1.319 4.507-.7 1.143-2.023 1.463-4.944 1.506-7.32s.059-6.633-1.025-8.277m-.946 7.55c-.261 1.917-1.97 2.157-3.155 1.485-1.18-.673-1.576-1.725-1.576-2.446 0-.72.022-1.746.876-2.302.838-.544 1.869-.037 2.27.22.507.32 1.847 1.126 1.585 3.043" data-color="2"/>
        <path fill="#000000" d="M47.913 55.152c-.224-9.483 1.185-13.29 1.185-13.29s-1.345.33-3.155.298c-1.795-.032-3.226-.592-3.226-.592s.892 2.088 1.405 3.882c.486 1.703 1.062 4.864 1.062 4.864s-3.956-1.527-5.895 4.432c-1.783 5.484-.988 9.163-.486 10.637.476 1.41 1.602 2.686 3.316 2.6 2.729-.138 3.386-2.397 3.386-2.397l-.748 3.247s1.56-.518 3.081-.582c1.447-.064 3.247.25 3.247.25s-2.948-3.86-3.172-13.344zm-1.789 3.893c-.208 1.319-1.5 2.237-3.337 1.949s-2.745-1.933-2.035-3.685c.593-1.468 2.403-1.447 3.284-1.26 1.41.305 2.323 1.49 2.088 2.996" data-color="2"/>
        <path fill="#000000" d="M72.476 54.074c-.54-5.068-2.04-9.014-3.583-10.045-.897-.598-2.43-.454-3.204-.085-1.26.609-2.115 1.452-2.483 3.076-.358 1.559-.614 4.458-.075 7.726.881 5.308 2.104 6.312 2.974 6.995 1.17.924 3.188.337 4.683-.95 2.286-1.965 1.928-4.485 1.688-6.717m-4.79.833c-.924.41-2.633.144-2.568-1.768s1.687-2.798 2.328-3.07c.646-.273 2.552-.604 2.568 1.724.01 1.73-1.228 2.627-2.328 3.119z" data-color="2"/>
        <path fill="#000000" d="M44.96 17.005c-3.225-.16-4.416 3.892-4.731 5.446-1.03 5.1-.999 9.142 2.883 9.318 3.477.155 4.886-2.627 5.223-6.712s.566-7.86-3.375-8.052m1.634 7.732c-.192 1.116-1.388 1.708-2.862 1.49-1.32-.198-2.318-1.09-2.003-2.425.278-1.18 1.597-1.543 2.932-1.345 1.287.192 2.13 1.164 1.938 2.28z" data-color="2"/>
        <path fill="#000000" d="M31.546 45.63s1.447 5.41.956 11.06-2.28 9.302-2.28 9.302 2.024-.032 3.674.443c1.88.54 3.898 1.805 3.898 1.805s-1.592-6.034-2.024-9.954c-.273-2.467-.705-4.4-.742-6.044-.022-.844.918-1.271 1.452-.679.187.209.491.695.64 1.335.279 1.175.247 3.13.247 3.13s.902-2.905 1.719-4.315c.988-1.709 2.638-2.958 2.638-2.958s-3.081.261-5.991-.705c-2.67-.887-4.192-2.414-4.192-2.414z" data-color="2"/>
        <path fill="#000000" d="M76.807 47.436c-1.533.09-3.108-.614-3.14-2.141-.032-1.597 1.175-2.264 2.526-2.312 2.654-.097 4.015 2.686 4.015 2.686s.61-2.457.422-4.817a11.5 11.5 0 0 0-.534-2.707 1.89 1.89 0 0 0-2.35-1.218c-.928.283-2.135.775-3.342 1.591-1.864 1.266-2.718 2.649-3.044 4.416-.299 1.634-.026 3.306 1.335 5.351 1.469 2.205 3.573 2.243 3.957 5.655.3 2.664-.705 5.601-3.812 8.309-.075.064-.155.122-.23.186a37 37 0 0 1-5.51 3.637 41 41 0 0 1-6.387 2.771c-4.667 1.58-9.639 2.382-14.765 2.382s-10.097-.801-14.764-2.382a41 41 0 0 1-6.387-2.771 37 37 0 0 1-3.145-1.901c-.438.71-.94 1.11-1.185 1.308a3.25 3.25 0 0 1-1.837.689c-.374.01-.641-.043-.86-.134C25.123 71.595 35.039 75 45.948 75c14.012 0 26.384-5.618 33.79-14.193 0 0 1.149-1.437 1.49-2.045.31-.55.855-1.549 1.095-2.43.902-3.305-.347-5.697-1.362-6.931-.929-1.127-2.381-2.061-4.154-1.954z" data-color="2"/>
        <path fill="#000000" d="M19.244 36.676 18.89 39.8s-1.436-2.873-2.798-4c-.918-.763-2.307-.945-3.455.63-.913 1.255-1.548 5.88-.876 9.895.625 3.743 1.885 6.109 3.963 7.668 1.676 1.26 2.904-.016 2.904-.016s-.454 4.422-1.703 4.838c-.48.16-2.136-.475-3.594-2.889-1.34-2.552-1.991-5.244-2.082-5.42-.31.46-1.266 2.91-1.25 4.571.022 1.773.454 2.606 1.004 3.685.491.971 2.003 3.033 3.53 4.581a4.2 4.2 0 0 0 2.178 1.175c.4.08.844.107 1.33.07 1.153-.097 1.885-.625 2.35-1.154.758-.87.865-2.099.822-3.284-.032-.844-.486-4.283.181-9.526.663-5.212 3.017-9.98 3.017-9.98s-1.698-.727-2.968-1.762c-1.528-1.245-2.2-2.2-2.2-2.2zm.042 9.126c-.059 1.65-1.64 2.301-2.84 1.511-.956-.63-2.366-2.072-2.19-4.186.139-1.73 1.912-1.698 2.686-1.17.961.662 2.414 2.13 2.35 3.845z" data-color="2"/>
    </g>
</svg>
